# xmcd
# 
# Track frame offsets:
#     182
#     19070
#     36282
#     50507
#     63420
#     78795
#     92170
#     106932
#     118857
#     134370
#     169720
# 
# Disc length: 2461
# 
# Revision: 5
# Processed by: cddbd v1.5.2PL0 Copyright (c) Steve Scherf et al.
# Submitted via: fre:ac v1.0.17
# 
DISCID=8c099b0b
DTITLE=Blues Brothers, The - Original Sound Track
DYEAR=1980
DGENRE=Soundtrack
TTITLE0=She Caught The Katy
TTITLE1=Peter Gunn Theme
TTITLE2=Gimmi Some Lovin'
TTITLE3=Shake Your Tailfeather
TTITLE4=Everybody Needs Somebody To Love
TTITLE5=The Old Landmark
TTITLE6=Think
TTITLE7=Theme From Rawhide
TTITLE8=Minnie The Moocher
TTITLE9=Sweet Home Chicago
TTITLE10=Jailhouse Rock
EXTD=
EXTT0=
EXTT1=
EXTT2=
EXTT3=
EXTT4=
EXTT5=
EXTT6=
EXTT7=
EXTT8=
EXTT9=
EXTT10=
PLAYORDER=
